<svg xmlns="http://www.w3.org/2000/svg" width="1200" height="200" viewBox="0 0 1200 200" role="img" aria-label="Arsitektur Oracle AI">
  <defs>
    <linearGradient id="og" x1="0" y1="0" x2="1" y2="0">
      <stop offset="0%" stop-color="#a78bfa"/>
      <stop offset="50%" stop-color="#818cf8"/>
      <stop offset="100%" stop-color="#3b82f6"/>
    </linearGradient>
    <linearGradient id="arrow" x1="0" y1="0" x2="1" y2="0">
      <stop offset="0%" stop-color="#8b5cf6" stop-opacity="0.2"/>
      <stop offset="50%" stop-color="#a78bfa"/>
      <stop offset="100%" stop-color="#8b5cf6" stop-opacity="0.2"/>
    </linearGradient>
    <radialGradient id="oglow" cx="50%" cy="0%" r="90%">
      <stop offset="0%" stop-color="#8b5cf6" stop-opacity="0.14"/>
      <stop offset="100%" stop-color="#8b5cf6" stop-opacity="0"/>
    </radialGradient>
    <pattern id="ogrid" width="40" height="40" patternUnits="userSpaceOnUse">
      <path d="M40 0H0v40" fill="none" stroke="#a78bfa" stroke-opacity="0.05" stroke-width="1"/>
    </pattern>
  </defs>

  <rect width="1200" height="200" rx="14" fill="#09090b"/>
  <rect width="1200" height="200" rx="14" fill="url(#ogrid)"/>
  <rect width="1200" height="200" rx="14" fill="url(#oglow)"/>

  <!-- arrows -->
  <g stroke="url(#arrow)" stroke-width="2.5" fill="none">
    <path d="M298 100h96m0 0-14-8m14 8-14 8"/>
    <path d="M628 100h96m0 0-14-8m14 8-14 8"/>
    <path d="M958 100h60m0 0-14-8m14 8-14 8"/>
  </g>

  <!-- node 1 -->
  <rect x="70" y="62" width="228" height="76" rx="12" fill="#0e0e16" stroke="url(#og)" stroke-width="1.5"/>
  <text x="184" y="94" text-anchor="middle" font-family="Arial, Helvetica, sans-serif" font-size="17" font-weight="bold" fill="#e9d5ff" letter-spacing="1.5">PENGGUNA</text>
  <text x="184" y="118" text-anchor="middle" font-family="Arial, Helvetica, sans-serif" font-size="11.5" fill="#94a3b8" letter-spacing="1">Tanya apa saja · bahasa apa pun</text>

  <!-- node 2 -->
  <rect x="400" y="62" width="228" height="76" rx="12" fill="#0e0e16" stroke="url(#og)" stroke-width="1.5"/>
  <text x="514" y="94" text-anchor="middle" font-family="Arial, Helvetica, sans-serif" font-size="17" font-weight="bold" fill="#c4b5fd" letter-spacing="1.5">ORACLE AI</text>
  <text x="514" y="118" text-anchor="middle" font-family="Arial, Helvetica, sans-serif" font-size="11.5" fill="#94a3b8" letter-spacing="1">Asisten kecerdasan 24/7</text>

  <!-- node 3 -->
  <rect x="730" y="62" width="228" height="76" rx="12" fill="#0e0e16" stroke="url(#og)" stroke-width="1.5"/>
  <text x="844" y="94" text-anchor="middle" font-family="Arial, Helvetica, sans-serif" font-size="17" font-weight="bold" fill="#c4b5fd" letter-spacing="1.5">46 DEWAN PAKAR</text>
  <text x="844" y="118" text-anchor="middle" font-family="Arial, Helvetica, sans-serif" font-size="11.5" fill="#94a3b8" letter-spacing="1">6.900 tahun pengalaman gabungan</text>

  <!-- node 4 -->
  <rect x="1024" y="62" width="146" height="76" rx="12" fill="#0e0e16" stroke="url(#og)" stroke-width="1.5"/>
  <text x="1097" y="94" text-anchor="middle" font-family="Arial, Helvetica, sans-serif" font-size="15" font-weight="bold" fill="#a5b4fc" letter-spacing="1">JAWABAN</text>
  <text x="1097" y="118" text-anchor="middle" font-family="Arial, Helvetica, sans-serif" font-size="11.5" fill="#94a3b8" letter-spacing="1">Vonis presisi</text>

  <!-- footer strip -->
  <text x="600" y="172" text-anchor="middle" font-family="Arial, Helvetica, sans-serif" font-size="11.5" letter-spacing="2.5" fill="#64748b">Z.AI GLM · ENDPOINT OPENAI-COMPATIBLE · MODE CADANGAN WHATSAPP 24/7</text>
</svg>
